<svg version="1.1" id="Layer_1" xmlns="http://www.w3.org/2000/svg" xmlns:xlink="http://www.w3.org/1999/xlink" x="0px" y="0px"
	 width="100%" viewBox="0 0 1024 1024" enable-background="new 0 0 1024 1024" xml:space="preserve">
<path fill="#FCDF19" opacity="1.000000" stroke="none" 
	d="
M685.000000,1025.000000 
	C456.666656,1025.000000 228.833328,1025.000000 1.000000,1025.000000 
	C1.000000,683.666687 1.000000,342.333344 1.000000,1.000000 
	C342.333344,1.000000 683.666687,1.000000 1025.000000,1.000000 
	C1025.000000,342.333344 1025.000000,683.666687 1025.000000,1025.000000 
	C911.833313,1025.000000 798.666687,1025.000000 685.000000,1025.000000 
M915.749268,470.318665 
	C915.749268,470.318665 915.688904,470.299652 915.875549,469.330170 
	C915.907654,442.925018 915.980713,416.519684 915.875916,390.115021 
	C915.869263,388.432526 914.482788,386.755463 913.259583,384.568542 
	C904.902832,362.559296 885.363586,356.864563 859.841980,369.394958 
	C859.841980,365.563507 859.907288,361.958466 859.831604,358.356384 
	C859.238831,330.131439 836.457886,307.870972 808.357056,308.028656 
	C780.628601,308.184265 758.158447,330.781555 758.001160,358.860168 
	C757.877991,380.853455 757.965820,402.847870 757.960205,424.841797 
	C757.959351,428.155975 757.960083,431.470154 757.960083,434.746887 
	C756.330261,435.201172 755.053284,435.572327 753.768250,435.912933 
	C737.908752,440.116882 727.696777,450.228546 723.417969,465.935089 
	C722.351624,469.849640 720.896912,470.801453 717.100708,470.789398 
	C676.112427,470.658997 635.122131,470.503998 594.135376,470.786255 
	C570.713013,470.947510 552.069458,462.239441 537.168701,444.073242 
	C514.526489,416.469208 486.266663,396.884552 451.533539,387.457703 
	C416.413422,377.925781 381.618378,376.802032 347.484741,392.002777 
	C321.089050,403.757599 298.623138,421.060608 278.037292,440.931183 
	C271.958160,446.799133 266.141602,451.804352 257.043274,450.264496 
	C256.256561,450.131348 255.391327,450.414154 254.569290,450.545715 
	C247.569305,451.666199 240.570892,452.796478 233.588058,453.921234 
	C234.929520,445.464203 236.247696,437.153931 238.221191,428.360901 
	C238.787994,422.689911 239.856018,417.011017 239.766647,411.350372 
	C239.692093,406.627838 238.261002,401.926727 237.188690,396.407837 
	C236.576950,380.425690 235.600555,364.446808 235.457611,348.460449 
	C235.318954,332.953857 239.277588,318.470673 249.073669,306.035828 
	C254.018936,299.758453 260.603973,297.245300 268.496948,298.178925 
	C271.802277,298.569855 275.075836,299.403046 278.385559,299.551788 
	C291.481384,300.140259 304.689270,301.778381 317.661438,300.697479 
	C334.641663,299.282654 346.948212,287.408386 349.257690,272.735809 
	C349.807678,269.241516 351.158569,267.450287 354.456665,265.985138 
	C375.946533,256.438507 384.267883,237.731827 375.614349,216.498856 
	C370.105255,202.981293 363.622681,189.752808 356.387787,177.072998 
	C346.924408,160.487610 332.651794,150.182281 312.729095,151.668472 
	C301.211029,152.527695 289.507446,154.416016 278.489319,157.800674 
	C245.874405,167.819611 218.150436,186.321899 193.803391,209.924515 
	C170.996567,232.034012 149.970871,255.556885 135.940994,284.558411 
	C95.398766,368.364349 75.425209,456.875214 75.072235,549.866333 
	C75.004478,567.717163 82.521431,582.244629 97.040543,592.560730 
	C124.312653,611.937988 154.576187,624.434875 187.583755,629.988770 
	C222.267166,635.824707 257.199158,639.451294 292.317688,641.487732 
	C343.225311,644.439636 393.781616,642.606689 444.213440,634.132935 
	C482.965027,627.621765 513.742432,610.101990 535.798706,577.112915 
	C545.815186,562.131470 561.151794,555.389648 579.110291,555.342285 
	C625.276611,555.220581 671.443542,555.328918 717.609924,555.223511 
	C721.005310,555.215759 722.355835,556.045837 723.291748,559.594238 
	C727.501221,575.554199 737.730408,585.817871 753.790710,590.093140 
	C755.172913,590.461121 756.540344,590.884583 757.972900,591.299133 
	C757.972900,616.700928 758.636353,641.715454 757.795227,666.679321 
	C756.865112,694.284729 785.556030,724.897888 819.140015,717.072815 
	C839.771667,712.265625 856.445923,695.263855 859.107788,674.244263 
	C859.842285,668.444214 859.877380,662.555542 860.257446,656.311951 
	C862.136292,657.522949 863.415710,658.695618 864.922729,659.256287 
	C870.284851,661.251282 875.859558,664.923157 881.109314,664.547302 
	C896.384460,663.453613 908.123413,656.061279 914.457214,640.594666 
	C914.963440,638.922974 915.849426,637.264160 915.906555,635.577271 
	C916.098083,629.923950 916.022156,624.260437 915.997437,618.601074 
	C915.905884,597.634399 915.793762,576.667908 915.748657,555.682068 
	C915.748657,555.682068 915.709534,555.633606 916.071472,555.758789 
	C916.336426,555.781189 916.574219,555.711243 917.618896,555.318176 
	C919.057861,555.293701 920.496826,555.269165 922.558533,555.605713 
	C924.702698,555.008240 926.846863,554.410767 929.459045,553.304260 
	C943.300171,547.579285 950.855286,536.481812 950.984192,521.637817 
	C951.023193,517.146790 950.806091,512.645935 951.028259,508.165497 
	C951.873535,491.116089 944.585510,479.128174 928.592468,471.595154 
	C926.373657,471.315247 924.154785,471.035309 921.075317,470.840576 
	C919.645386,470.710693 918.215393,470.580811 916.449402,470.277344 
	C916.189636,470.200806 915.942749,470.230743 915.749268,470.318665 
z"/>
<path fill="#080601" opacity="1.000000" stroke="none" 
	d="
M921.935791,555.244629 
	C920.496826,555.269165 919.057861,555.293701 917.027283,555.319946 
	C916.114624,555.241211 915.872620,555.345154 915.709534,555.633606 
	C915.709534,555.633606 915.748657,555.682068 915.421204,556.014832 
	C915.053650,573.947876 915.149414,591.549988 914.922668,609.147827 
	C914.786133,619.743042 914.147522,630.331787 913.734619,640.923401 
	C908.123413,656.061279 896.384460,663.453613 881.109314,664.547302 
	C875.859558,664.923157 870.284851,661.251282 864.922729,659.256287 
	C863.415710,658.695618 862.136292,657.522949 860.257446,656.311951 
	C859.877380,662.555542 859.842285,668.444214 859.107788,674.244263 
	C856.445923,695.263855 839.771667,712.265625 819.140015,717.072815 
	C785.556030,724.897888 756.865112,694.284729 757.795227,666.679321 
	C758.636353,641.715454 757.972900,616.700928 757.972900,591.299133 
	C756.540344,590.884583 755.172913,590.461121 753.790710,590.093140 
	C737.730408,585.817871 727.501221,575.554199 723.291748,559.594238 
	C722.355835,556.045837 721.005310,555.215759 717.609924,555.223511 
	C671.443542,555.328918 625.276611,555.220581 579.110291,555.342285 
	C561.151794,555.389648 545.815186,562.131470 535.798706,577.112915 
	C513.742432,610.101990 482.965027,627.621765 444.213440,634.132935 
	C393.781616,642.606689 343.225311,644.439636 292.317688,641.487732 
	C257.199158,639.451294 222.267166,635.824707 187.583755,629.988770 
	C154.576187,624.434875 124.312653,611.937988 97.040543,592.560730 
	C82.521431,582.244629 75.004478,567.717163 75.072235,549.866333 
	C75.425209,456.875214 95.398766,368.364349 135.940994,284.558411 
	C149.970871,255.556885 170.996567,232.034012 193.803391,209.924515 
	C218.150436,186.321899 245.874405,167.819611 278.489319,157.800674 
	C289.507446,154.416016 301.211029,152.527695 312.729095,151.668472 
	C332.651794,150.182281 346.924408,160.487610 356.387787,177.072998 
	C363.622681,189.752808 370.105255,202.981293 375.614349,216.498856 
	C384.267883,237.731827 375.946533,256.438507 354.456665,265.985138 
	C351.158569,267.450287 349.807678,269.241516 349.257690,272.735809 
	C346.948212,287.408386 334.641663,299.282654 317.661438,300.697479 
	C304.689270,301.778381 291.481384,300.140259 278.385559,299.551788 
	C275.075836,299.403046 271.802277,298.569855 268.496948,298.178925 
	C260.603973,297.245300 254.018936,299.758453 249.073669,306.035828 
	C239.277588,318.470673 235.318954,332.953857 235.457611,348.460449 
	C235.600555,364.446808 236.576950,380.425690 237.254013,397.262573 
	C237.401520,408.359406 237.483704,418.601562 237.565887,428.843689 
	C236.247696,437.153931 234.929520,445.464203 233.588058,453.921234 
	C240.570892,452.796478 247.569305,451.666199 254.569290,450.545715 
	C255.391327,450.414154 256.256561,450.131348 257.043274,450.264496 
	C266.141602,451.804352 271.958160,446.799133 278.037292,440.931183 
	C298.623138,421.060608 321.089050,403.757599 347.484741,392.002777 
	C381.618378,376.802032 416.413422,377.925781 451.533539,387.457703 
	C486.266663,396.884552 514.526489,416.469208 537.168701,444.073242 
	C552.069458,462.239441 570.713013,470.947510 594.135376,470.786255 
	C635.122131,470.503998 676.112427,470.658997 717.100708,470.789398 
	C720.896912,470.801453 722.351624,469.849640 723.417969,465.935089 
	C727.696777,450.228546 737.908752,440.116882 753.768250,435.912933 
	C755.053284,435.572327 756.330261,435.201172 757.960083,434.746887 
	C757.960083,431.470154 757.959351,428.155975 757.960205,424.841797 
	C757.965820,402.847870 757.877991,380.853455 758.001160,358.860168 
	C758.158447,330.781555 780.628601,308.184265 808.357056,308.028656 
	C836.457886,307.870972 859.238831,330.131439 859.831604,358.356384 
	C859.907288,361.958466 859.841980,365.563507 859.841980,369.394958 
	C885.363586,356.864563 904.902832,362.559296 913.521484,385.244324 
	C914.183289,390.536072 914.902771,395.150299 914.928528,399.768372 
	C915.049866,421.530121 914.964844,443.292908 915.010803,465.055237 
	C915.014465,466.803833 915.452698,468.551544 915.688904,470.299652 
	C915.688904,470.299652 915.749268,470.318665 915.881287,470.490143 
	C916.013306,470.661621 916.432739,470.678253 916.432739,470.678253 
	C916.432739,470.678253 916.785461,470.450928 916.785461,470.450928 
	C918.215393,470.580811 919.645386,470.710693 921.893188,470.916901 
	C924.804626,471.391266 926.898254,471.789307 928.991882,472.187317 
	C944.585510,479.128174 951.873535,491.116089 951.028259,508.165497 
	C950.806091,512.645935 951.023193,517.146790 950.984192,521.637817 
	C950.855286,536.481812 943.300171,547.579285 928.827393,553.575562 
	C926.109070,554.312866 924.022461,554.778748 921.935791,555.244629 
M929.011292,484.990662 
	C929.011292,484.990662 929.086365,484.967896 928.766235,484.431976 
	C928.180420,484.254181 927.594666,484.076416 927.030823,483.970520 
	C927.030823,483.970520 927.101746,483.945587 926.642578,483.378052 
	C925.685120,483.170105 924.727600,482.962158 923.695862,482.750824 
	C923.695862,482.750824 923.687683,482.824707 922.984436,482.223175 
	C920.423889,482.043365 917.863342,481.863586 915.238159,481.679260 
	C915.238159,502.907990 915.238159,523.452759 915.238159,544.690063 
	C918.441895,544.117126 921.294922,543.606934 924.043030,543.049255 
	C924.043030,543.049255 924.000000,543.156067 924.695251,543.185547 
	C925.498535,542.810059 926.301819,542.434570 927.036804,542.034912 
	C927.036804,542.034912 927.016785,542.104553 927.640015,542.072693 
	C928.122559,541.726013 928.605042,541.379333 929.012512,541.010193 
	C929.012512,541.010193 928.991211,541.085510 929.606140,541.004395 
	C929.891663,540.723206 930.177246,540.442017 931.091064,539.987671 
	C937.261475,535.327393 940.019226,529.042969 939.980835,521.404419 
	C939.949829,515.242432 940.186157,509.069702 939.896362,502.920959 
	C939.559448,495.773224 936.847412,489.721252 930.121643,485.304565 
	C929.744263,485.174805 929.366943,485.045044 929.011292,484.990662 
M556.622559,548.058167 
	C557.172729,547.788391 557.722839,547.518616 558.115295,547.172791 
	C558.115295,547.172791 558.053650,547.336670 558.833862,547.296814 
	C559.782104,546.947998 560.730347,546.599121 561.899048,546.345337 
	C561.899048,546.345337 562.024780,546.140808 562.808228,546.161560 
	C563.781189,545.849121 564.754089,545.536743 565.755615,545.299072 
	C565.755615,545.299072 565.833435,545.281006 566.709045,545.304443 
	C568.131287,545.089172 569.553467,544.873901 571.706421,544.736633 
	C572.167969,544.593933 572.629578,544.451172 573.866943,544.494995 
	C577.027100,544.422913 580.187256,544.289062 583.347412,544.288025 
	C626.948975,544.274231 670.550598,544.282104 714.152161,544.267090 
	C716.140137,544.266418 718.128174,544.098877 720.974243,544.128296 
	C721.313293,543.640564 721.947449,543.153625 721.948792,542.664917 
	C722.004272,523.096741 722.020996,503.528351 721.928406,483.960510 
	C721.925232,483.301727 720.746277,482.648529 719.186035,481.770813 
	C700.577087,481.755280 681.968079,481.723145 663.359131,481.728149 
	C636.946838,481.735229 610.534546,481.769623 583.702209,481.443939 
	C583.377625,481.532471 583.053040,481.621002 582.023743,481.226685 
	C578.684448,480.775482 575.345154,480.324280 571.876709,479.669098 
	C571.876709,479.669098 571.657227,479.769623 571.065063,479.272430 
	C570.049011,479.112335 569.033020,478.952240 568.069458,478.915009 
	C568.069458,478.915009 568.188965,478.855316 567.723755,478.358643 
	C566.844238,478.188660 565.964661,478.018707 564.583862,477.336517 
	C551.406555,472.658386 540.786926,464.523102 531.283142,454.306610 
	C521.335632,443.613037 511.346649,432.639832 499.853607,423.758698 
	C455.966919,389.845764 382.768616,374.355103 323.100159,418.383331 
	C306.803436,430.408386 292.051697,444.517212 276.407013,457.447266 
	C274.189697,459.279816 271.016266,460.440308 268.126801,460.887695 
	C257.802460,462.486176 247.424454,463.776947 237.037369,464.915924 
	C231.120239,465.564789 228.040436,468.591827 225.547913,474.045013 
	C218.639496,489.159302 210.466827,503.700409 203.687271,518.867432 
	C198.250519,531.030334 195.744980,543.960388 199.550034,557.313049 
	C200.669815,561.242554 200.133163,564.577209 195.839294,565.649353 
	C191.752365,566.669800 189.903564,563.863770 188.886520,560.255066 
	C185.620041,548.664795 185.583191,536.834473 189.877060,525.843567 
	C196.148285,509.791199 203.009949,493.836945 211.205048,478.699005 
	C224.386963,454.349365 228.168900,428.585785 226.603500,401.463013 
	C225.566971,383.503418 224.279236,365.503143 224.512573,347.539368 
	C224.803238,325.160645 231.101685,304.846954 249.887558,290.372742 
	C249.836548,290.316620 249.746002,290.157257 249.609085,290.075439 
	C247.755417,288.967865 245.895233,287.871216 244.036789,286.771667 
	C230.480423,278.750854 220.918716,267.413177 215.614456,252.540649 
	C213.860748,247.623428 214.726562,244.374924 218.345520,243.381180 
	C222.794495,242.159546 224.678589,245.033524 225.939316,248.644150 
	C230.734207,262.376251 239.913101,272.212189 252.657028,278.987061 
	C271.187775,288.838287 291.243408,291.131500 311.734528,290.621460 
	C319.674561,290.423828 327.068298,287.619141 332.939056,281.791534 
	C336.620453,278.137177 338.670166,273.836395 338.569458,268.346191 
	C336.667389,268.346191 335.034912,268.311279 333.404266,268.351593 
	C317.156342,268.753174 301.631592,265.386108 286.768463,259.027405 
	C277.118744,254.899063 270.431152,244.299454 271.049927,234.372223 
	C271.723907,223.559372 278.609650,217.254791 288.158661,214.649292 
	C296.556549,212.357895 305.454437,211.694107 314.186218,211.011383 
	C315.850159,210.881271 318.782227,213.733932 319.336517,215.712601 
	C320.194183,218.774261 317.879639,221.105392 314.654449,221.570251 
	C311.865540,221.972244 308.938843,221.524094 306.185608,222.045700 
	C300.503784,223.122147 294.619141,223.911346 289.324371,226.064178 
	C281.369720,229.298477 279.651825,236.213104 284.770050,243.077789 
	C286.758728,245.745010 289.706268,248.274841 292.762085,249.450317 
	C299.404236,252.005325 306.293213,254.175354 313.268951,255.551041 
	C326.130310,258.087463 339.098236,258.673248 351.696564,253.929626 
	C364.266174,249.196808 369.193817,240.588028 367.143921,227.329605 
	C366.865448,225.528473 366.726196,223.593124 365.949280,221.999359 
	C359.033936,207.813477 352.700684,193.276291 344.775391,179.670074 
	C337.429535,167.058640 325.525238,160.827347 310.592316,162.811310 
	C300.581329,164.141327 290.417908,165.563751 280.823853,168.553268 
	C254.871002,176.640198 231.943665,190.571930 211.760635,208.559387 
	C185.289047,232.151337 161.086960,257.771606 145.432617,290.264618 
	C105.915085,372.289307 86.473351,458.904510 86.086853,549.852173 
	C86.025261,564.346069 92.364548,575.871033 104.251678,584.171936 
	C128.308624,600.971130 154.701599,612.532227 183.538315,617.947144 
	C219.260712,624.654907 255.378937,628.194763 291.651520,630.377075 
	C344.070251,633.530945 396.151459,631.871155 447.931824,622.107300 
	C478.641174,616.316589 504.087799,602.634949 522.116882,576.786804 
	C530.516602,564.744202 540.467224,554.902771 554.565674,548.945068 
	C555.060059,548.631836 555.554443,548.318542 556.001648,547.976746 
	C556.001648,547.976746 555.983582,548.028870 556.622559,548.058167 
M860.329529,390.104401 
	C860.168396,392.090027 859.867004,394.075623 859.866394,396.061279 
	C859.842468,473.997528 859.836914,551.933777 859.891113,629.869995 
	C859.892639,632.117188 860.565186,634.363770 860.821045,636.728394 
	C860.821045,636.728394 860.929016,636.842346 860.889099,637.549927 
	C861.159546,638.162354 861.430054,638.774719 861.828857,640.061584 
	C866.817810,649.530273 875.878418,654.364502 885.407043,652.641541 
	C895.142578,650.881287 902.114319,643.858276 903.753357,633.951355 
	C903.834412,632.624329 903.986145,631.297302 903.986389,629.970276 
	C903.997803,552.011963 904.001404,474.053680 903.963684,396.095398 
	C903.962891,394.494141 903.469360,392.893158 903.378784,390.592834 
	C900.973328,380.587067 893.537659,373.982178 883.729187,373.138672 
	C874.110535,372.311554 865.491028,377.584229 861.209717,387.097595 
	C861.115845,387.785675 861.021912,388.473755 860.822510,389.273895 
	C860.822510,389.273895 860.924561,389.389130 860.329529,390.104401 
M769.179993,355.047974 
	C769.112000,357.207855 768.984924,359.367767 768.984741,361.527649 
	C768.974854,462.556305 768.974731,563.584961 768.985474,664.613586 
	C768.985657,666.438110 769.129883,668.262695 769.122742,670.858215 
	C772.549500,691.903625 787.442505,706.116638 806.918396,706.927979 
	C830.031372,707.890991 848.687805,689.903137 848.791199,666.258179 
	C848.921570,636.450623 848.829529,606.642090 848.829224,576.833984 
	C848.828430,504.561798 848.884949,432.289551 848.791809,360.017487 
	C848.757507,333.406281 825.878845,314.691772 800.280212,320.025818 
	C783.721985,323.476074 770.095703,338.764282 769.179993,355.047974 
M757.967468,467.500214 
	C757.967468,460.577972 757.967468,453.655701 757.967468,446.676117 
	C744.447815,448.491272 733.394043,460.433655 733.187134,474.362396 
	C732.804016,500.155487 732.791809,525.962891 733.197693,551.755371 
	C733.416809,565.680359 744.740906,577.780396 757.967468,579.273193 
	C757.967468,542.319153 757.967468,505.409607 757.967468,467.500214 
z"/>
<path fill="#EBD545" opacity="1.000000" stroke="none" 
	d="
M914.095947,640.759033 
	C914.147522,630.331787 914.786133,619.743042 914.922668,609.147827 
	C915.149414,591.549988 915.053650,573.947876 915.391602,556.024414 
	C915.793762,576.667908 915.905884,597.634399 915.997437,618.601074 
	C916.022156,624.260437 916.098083,629.923950 915.906555,635.577271 
	C915.849426,637.264160 914.963440,638.922974 914.095947,640.759033 
z"/>
<path fill="#EBD545" opacity="1.000000" stroke="none" 
	d="
M915.782227,469.814911 
	C915.452698,468.551544 915.014465,466.803833 915.010803,465.055237 
	C914.964844,443.292908 915.049866,421.530121 914.928528,399.768372 
	C914.902771,395.150299 914.183289,390.536072 913.760864,385.497955 
	C914.482788,386.755463 915.869263,388.432526 915.875916,390.115021 
	C915.980713,416.519684 915.907654,442.925018 915.782227,469.814911 
z"/>
<path fill="#EDD951" opacity="1.000000" stroke="none" 
	d="
M237.893539,428.602295 
	C237.483704,418.601562 237.401520,408.359406 237.375015,397.666687 
	C238.261002,401.926727 239.692093,406.627838 239.766647,411.350372 
	C239.856018,417.011017 238.787994,422.689911 237.893539,428.602295 
z"/>
<path fill="#EBD545" opacity="1.000000" stroke="none" 
	d="
M928.792175,471.891235 
	C926.898254,471.789307 924.804626,471.391266 922.323486,470.874298 
	C924.154785,471.035309 926.373657,471.315247 928.792175,471.891235 
z"/>
<path fill="#EBD545" opacity="1.000000" stroke="none" 
	d="
M922.247192,555.425171 
	C924.022461,554.778748 926.109070,554.312866 928.593384,553.830078 
	C926.846863,554.410767 924.702698,555.008240 922.247192,555.425171 
z"/>
<path fill="#EBD545" opacity="1.000000" stroke="none" 
	d="
M916.617432,470.364136 
	C916.785461,470.450928 916.432739,470.678253 916.432739,470.678253 
	C916.432739,470.678253 916.013306,470.661621 915.860962,470.514404 
	C915.942749,470.230743 916.189636,470.200806 916.617432,470.364136 
z"/>
<path fill="#EBD545" opacity="1.000000" stroke="none" 
	d="
M915.890503,555.696167 
	C915.872620,555.345154 916.114624,555.241211 916.610229,555.435364 
	C916.574219,555.711243 916.336426,555.781189 915.890503,555.696167 
z"/>
<path fill="#FBDE1A" opacity="1.000000" stroke="none" 
	d="
M573.091125,544.308411 
	C572.629578,544.451172 572.167969,544.593933 571.034302,544.529236 
	C568.852600,544.641541 567.343018,544.961243 565.833435,545.281006 
	C565.833435,545.281006 565.755615,545.299072 565.334351,545.195312 
	C563.950256,545.441345 562.987549,545.791077 562.024780,546.140808 
	C562.024780,546.140808 561.899048,546.345337 561.384094,546.244019 
	C559.930664,546.540710 558.992126,546.938660 558.053650,547.336670 
	C558.053650,547.336670 558.115295,547.172791 557.871338,547.164795 
	C557.079468,547.447449 556.531555,547.738159 555.983582,548.028870 
	C555.983582,548.028870 556.001648,547.976746 555.732422,548.012146 
	C554.964600,548.329651 554.466003,548.611755 553.967407,548.893921 
	C540.467224,554.902771 530.516602,564.744202 522.116882,576.786804 
	C504.087799,602.634949 478.641174,616.316589 447.931824,622.107300 
	C396.151459,631.871155 344.070251,633.530945 291.651520,630.377075 
	C255.378937,628.194763 219.260712,624.654907 183.538315,617.947144 
	C154.701599,612.532227 128.308624,600.971130 104.251678,584.171936 
	C92.364548,575.871033 86.025261,564.346069 86.086853,549.852173 
	C86.473351,458.904510 105.915085,372.289307 145.432617,290.264618 
	C161.086960,257.771606 185.289047,232.151337 211.760635,208.559387 
	C231.943665,190.571930 254.871002,176.640198 280.823853,168.553268 
	C290.417908,165.563751 300.581329,164.141327 310.592316,162.811310 
	C325.525238,160.827347 337.429535,167.058640 344.775391,179.670074 
	C352.700684,193.276291 359.033936,207.813477 365.949280,221.999359 
	C366.726196,223.593124 366.865448,225.528473 367.143921,227.329605 
	C369.193817,240.588028 364.266174,249.196808 351.696564,253.929626 
	C339.098236,258.673248 326.130310,258.087463 313.268951,255.551041 
	C306.293213,254.175354 299.404236,252.005325 292.762085,249.450317 
	C289.706268,248.274841 286.758728,245.745010 284.770050,243.077789 
	C279.651825,236.213104 281.369720,229.298477 289.324371,226.064178 
	C294.619141,223.911346 300.503784,223.122147 306.185608,222.045700 
	C308.938843,221.524094 311.865540,221.972244 314.654449,221.570251 
	C317.879639,221.105392 320.194183,218.774261 319.336517,215.712601 
	C318.782227,213.733932 315.850159,210.881271 314.186218,211.011383 
	C305.454437,211.694107 296.556549,212.357895 288.158661,214.649292 
	C278.609650,217.254791 271.723907,223.559372 271.049927,234.372223 
	C270.431152,244.299454 277.118744,254.899063 286.768463,259.027405 
	C301.631592,265.386108 317.156342,268.753174 333.404266,268.351593 
	C335.034912,268.311279 336.667389,268.346191 338.569458,268.346191 
	C338.670166,273.836395 336.620453,278.137177 332.939056,281.791534 
	C327.068298,287.619141 319.674561,290.423828 311.734528,290.621460 
	C291.243408,291.131500 271.187775,288.838287 252.657028,278.987061 
	C239.913101,272.212189 230.734207,262.376251 225.939316,248.644150 
	C224.678589,245.033524 222.794495,242.159546 218.345520,243.381180 
	C214.726562,244.374924 213.860748,247.623428 215.614456,252.540649 
	C220.918716,267.413177 230.480423,278.750854 244.036789,286.771667 
	C245.895233,287.871216 247.755417,288.967865 249.609085,290.075439 
	C249.746002,290.157257 249.836548,290.316620 249.887558,290.372742 
	C231.101685,304.846954 224.803238,325.160645 224.512573,347.539368 
	C224.279236,365.503143 225.566971,383.503418 226.603500,401.463013 
	C228.168900,428.585785 224.386963,454.349365 211.205048,478.699005 
	C203.009949,493.836945 196.148285,509.791199 189.877060,525.843567 
	C185.583191,536.834473 185.620041,548.664795 188.886520,560.255066 
	C189.903564,563.863770 191.752365,566.669800 195.839294,565.649353 
	C200.133163,564.577209 200.669815,561.242554 199.550034,557.313049 
	C195.744980,543.960388 198.250519,531.030334 203.687271,518.867432 
	C210.466827,503.700409 218.639496,489.159302 225.547913,474.045013 
	C228.040436,468.591827 231.120239,465.564789 237.037369,464.915924 
	C247.424454,463.776947 257.802460,462.486176 268.126801,460.887695 
	C271.016266,460.440308 274.189697,459.279816 276.407013,457.447266 
	C292.051697,444.517212 306.803436,430.408386 323.100159,418.383331 
	C382.768616,374.355103 455.966919,389.845764 499.853607,423.758698 
	C511.346649,432.639832 521.335632,443.613037 531.283142,454.306610 
	C540.786926,464.523102 551.406555,472.658386 565.053223,477.860596 
	C566.411377,478.541565 567.300171,478.698456 568.188965,478.855347 
	C568.188965,478.855316 568.069458,478.915009 568.321655,479.137390 
	C569.601624,479.496399 570.629395,479.633026 571.657227,479.769623 
	C571.657227,479.769623 571.876709,479.669098 572.179688,480.079468 
	C575.897888,480.896393 579.313171,481.302979 582.728455,481.709595 
	C583.053040,481.621002 583.377625,481.532471 584.190674,481.911621 
	C586.805481,482.592834 588.931641,482.990417 591.058289,482.992798 
	C634.020569,483.041138 676.982971,483.044098 719.961670,483.499481 
	C719.966553,503.610046 719.955017,523.277283 719.478394,542.949951 
	C672.371643,542.961487 625.729980,542.951050 579.088440,543.030212 
	C577.088562,543.033569 575.090210,543.863525 573.091125,544.308411 
M285.816437,513.438599 
	C285.588501,511.288452 285.166809,509.137573 285.174866,506.988312 
	C285.189514,503.071869 283.660095,500.170654 279.584869,500.239197 
	C275.146790,500.313843 273.479950,503.723480 274.204407,507.589417 
	C275.724670,515.701660 276.672852,524.168274 279.792694,531.685669 
	C288.056458,551.597839 304.357147,563.589478 323.459839,571.919800 
	C353.402283,584.977112 384.787628,587.658997 416.881317,583.401917 
	C437.582550,580.656067 457.114899,574.434448 474.130371,561.820923 
	C481.975098,556.005676 488.533447,548.968811 492.902802,540.117065 
	C494.476654,536.928589 493.702057,534.102234 490.537537,532.509888 
	C487.588623,531.026001 484.838348,532.029663 483.289978,534.888977 
	C474.655212,550.834167 460.288910,559.456238 444.005585,565.380432 
	C416.568481,575.362488 388.360596,576.259216 359.845673,571.418884 
	C341.279053,568.267212 323.738922,562.287781 308.632751,550.601013 
	C296.642273,541.324646 288.349182,529.615601 285.816437,513.438599 
z"/>
<path fill="#FBDE1A" opacity="1.000000" stroke="none" 
	d="
M769.731323,354.300537 
	C770.095703,338.764282 783.721985,323.476074 800.280212,320.025818 
	C825.878845,314.691772 848.757507,333.406281 848.791809,360.017487 
	C848.884949,432.289551 848.828430,504.561798 848.829224,576.833984 
	C848.829529,606.642090 848.921570,636.450623 848.791199,666.258179 
	C848.687805,689.903137 830.031372,707.890991 806.918396,706.927979 
	C787.442505,706.116638 772.549500,691.903625 769.372559,670.106018 
	C769.748840,667.537781 769.985596,665.721741 769.985962,663.905701 
	C770.004517,562.696960 770.004822,461.488190 769.992676,360.279419 
	C769.992432,358.286469 769.822266,356.293488 769.731323,354.300537 
z"/>
<path fill="#FBDF1A" opacity="1.000000" stroke="none" 
	d="
M861.699524,386.614655 
	C865.491028,377.584229 874.110535,372.311554 883.729187,373.138672 
	C893.537659,373.982178 900.973328,380.587067 903.222656,391.460510 
	C903.025696,393.493317 902.949219,394.658478 902.949097,395.823608 
	C902.942444,473.790588 902.940125,551.757568 902.951843,629.724548 
	C902.952087,631.386292 903.118896,633.048096 903.208008,634.709839 
	C902.114319,643.858276 895.142578,650.881287 885.407043,652.641541 
	C875.878418,654.364502 866.817810,649.530273 861.820923,639.381653 
	C861.518372,638.081909 861.223694,637.462158 860.929016,636.842346 
	C860.929016,636.842346 860.821045,636.728394 860.912476,636.157349 
	C861.015625,567.668823 861.034180,499.751312 861.033691,431.833801 
	C861.033630,417.685577 860.962769,403.537354 860.924561,389.389130 
	C860.924561,389.389130 860.822510,389.273895 861.116638,388.952637 
	C861.507019,387.959106 861.603271,387.286896 861.699524,386.614655 
z"/>
<path fill="#F9DD1F" opacity="1.000000" stroke="none" 
	d="
M757.967468,468.000122 
	C757.967468,505.409607 757.967468,542.319153 757.967468,579.273193 
	C744.740906,577.780396 733.416809,565.680359 733.197693,551.755371 
	C732.791809,525.962891 732.804016,500.155487 733.187134,474.362396 
	C733.394043,460.433655 744.447815,448.491272 757.967468,446.676117 
	C757.967468,453.655701 757.967468,460.577972 757.967468,468.000122 
z"/>
<path fill="#FADD1C" opacity="1.000000" stroke="none" 
	d="
M923.687683,482.824707 
	C923.687683,482.824707 923.695862,482.750824 924.001770,483.016479 
	C925.239014,483.503296 926.170410,483.724457 927.101746,483.945587 
	C927.101746,483.945587 927.030823,483.970520 927.206055,484.179688 
	C927.949646,484.581848 928.518005,484.774872 929.086365,484.967896 
	C929.086365,484.967896 929.011292,484.990662 929.190674,485.179199 
	C929.726746,485.519989 930.083374,485.672211 930.440063,485.824432 
	C936.847412,489.721252 939.559448,495.773224 939.896362,502.920959 
	C940.186157,509.069702 939.949829,515.242432 939.980835,521.404419 
	C940.019226,529.042969 937.261475,535.327393 930.488831,540.150513 
	C929.588135,540.570679 929.289673,540.828125 928.991211,541.085510 
	C928.991211,541.085510 929.012512,541.010193 928.743347,541.045837 
	C927.988403,541.422485 927.502563,541.763550 927.016785,542.104553 
	C927.016785,542.104553 927.036804,542.034912 926.721985,542.032898 
	C925.604736,542.405945 924.802368,542.781006 924.000000,543.156006 
	C924.000000,543.156067 924.043030,543.049255 923.640503,543.023438 
	C920.704224,542.151245 916.120544,545.104675 916.079224,539.619507 
	C915.945801,521.890991 915.970581,504.160187 916.166321,486.432770 
	C916.178894,485.293304 917.972900,483.788025 919.278442,483.159729 
	C920.515442,482.564423 922.199951,482.899078 923.687683,482.824707 
z"/>
<path fill="#F3DB45" opacity="1.000000" stroke="none" 
	d="
M769.455688,354.674255 
	C769.822266,356.293488 769.992432,358.286469 769.992676,360.279419 
	C770.004822,461.488190 770.004517,562.696960 769.985962,663.905701 
	C769.985596,665.721741 769.748840,667.537781 769.414612,669.720520 
	C769.129883,668.262695 768.985657,666.438110 768.985474,664.613586 
	C768.974731,563.584961 768.974854,462.556305 768.984741,361.527649 
	C768.984924,359.367767 769.112000,357.207855 769.455688,354.674255 
z"/>
<path fill="#EFD950" opacity="1.000000" stroke="none" 
	d="
M860.627075,389.746765 
	C860.962769,403.537354 861.033630,417.685577 861.033691,431.833801 
	C861.034180,499.751312 861.015625,567.668823 860.964355,636.098511 
	C860.565186,634.363770 859.892639,632.117188 859.891113,629.869995 
	C859.836914,551.933777 859.842468,473.997528 859.866394,396.061279 
	C859.867004,394.075623 860.168396,392.090027 860.627075,389.746765 
z"/>
<path fill="#E6D55F" opacity="1.000000" stroke="none" 
	d="
M903.480713,634.330566 
	C903.118896,633.048096 902.952087,631.386292 902.951843,629.724548 
	C902.940125,551.757568 902.942444,473.790588 902.949097,395.823608 
	C902.949219,394.658478 903.025696,393.493317 903.136108,391.810120 
	C903.469360,392.893158 903.962891,394.494141 903.963684,396.095398 
	C904.001404,474.053680 903.997803,552.011963 903.986389,629.970276 
	C903.986145,631.297302 903.834412,632.624329 903.480713,634.330566 
z"/>
<path fill="#ECD642" opacity="1.000000" stroke="none" 
	d="
M573.479004,544.401733 
	C575.090210,543.863525 577.088562,543.033569 579.088440,543.030212 
	C625.729980,542.951050 672.371643,542.961487 719.518433,543.216858 
	C720.054443,543.655334 720.085327,543.832214 720.116150,544.009094 
	C718.128174,544.098877 716.140137,544.266418 714.152161,544.267090 
	C670.550598,544.282104 626.948975,544.274231 583.347412,544.288025 
	C580.187256,544.289062 577.027100,544.422913 573.479004,544.401733 
z"/>
<path fill="#EDD743" opacity="1.000000" stroke="none" 
	d="
M719.945312,483.056152 
	C676.982971,483.044098 634.020569,483.041138 591.058289,482.992798 
	C588.931641,482.990417 586.805481,482.592834 584.400635,482.085815 
	C610.534546,481.769623 636.946838,481.735229 663.359131,481.728149 
	C681.968079,481.723145 700.577087,481.755280 719.604126,482.147095 
	C719.996582,482.700958 719.970947,482.878571 719.945312,483.056152 
z"/>
<path fill="#EDD85F" opacity="1.000000" stroke="none" 
	d="
M719.961670,483.499481 
	C719.970947,482.878571 719.996582,482.700958 720.068848,482.258057 
	C720.746277,482.648529 721.925232,483.301727 721.928406,483.960510 
	C722.020996,503.528351 722.004272,523.096741 721.948792,542.664917 
	C721.947449,543.153625 721.313293,543.640564 720.545166,544.068726 
	C720.085327,543.832214 720.054443,543.655334 719.983521,543.211426 
	C719.955017,523.277283 719.966553,503.610046 719.961670,483.499481 
z"/>
<path fill="#ECD647" opacity="1.000000" stroke="none" 
	d="
M923.336060,482.523956 
	C922.199951,482.899078 920.515442,482.564423 919.278442,483.159729 
	C917.972900,483.788025 916.178894,485.293304 916.166321,486.432770 
	C915.970581,504.160187 915.945801,521.890991 916.079224,539.619507 
	C916.120544,545.104675 920.704224,542.151245 923.692993,543.047241 
	C921.294922,543.606934 918.441895,544.117126 915.238159,544.690063 
	C915.238159,523.452759 915.238159,502.907990 915.238159,481.679260 
	C917.863342,481.863586 920.423889,482.043365 923.336060,482.523956 
z"/>
<path fill="#EDD743" opacity="1.000000" stroke="none" 
	d="
M582.376099,481.468140 
	C579.313171,481.302979 575.897888,480.896393 572.244263,480.181427 
	C575.345154,480.324280 578.684448,480.775482 582.376099,481.468140 
z"/>
<path fill="#ECD642" opacity="1.000000" stroke="none" 
	d="
M566.271240,545.292725 
	C567.343018,544.961243 568.852600,544.641541 570.668945,544.490234 
	C569.553467,544.873901 568.131287,545.089172 566.271240,545.292725 
z"/>
<path fill="#EDD743" opacity="1.000000" stroke="none" 
	d="
M571.361145,479.521027 
	C570.629395,479.633026 569.601624,479.496399 568.295410,479.075989 
	C569.033020,478.952240 570.049011,479.112335 571.361145,479.521027 
z"/>
<path fill="#EDD743" opacity="1.000000" stroke="none" 
	d="
M567.956360,478.606995 
	C567.300171,478.698456 566.411377,478.541565 565.303833,478.116699 
	C565.964661,478.018707 566.844238,478.188660 567.956360,478.606995 
z"/>
<path fill="#ECD647" opacity="1.000000" stroke="none" 
	d="
M926.872192,483.661804 
	C926.170410,483.724457 925.239014,483.503296 924.038940,483.018188 
	C924.727600,482.962158 925.685120,483.170105 926.872192,483.661804 
z"/>
<path fill="#ECD647" opacity="1.000000" stroke="none" 
	d="
M924.347656,543.170776 
	C924.802368,542.781006 925.604736,542.405945 926.756104,542.044983 
	C926.301819,542.434570 925.498535,542.810059 924.347656,543.170776 
z"/>
<path fill="#ECD642" opacity="1.000000" stroke="none" 
	d="
M562.416504,546.151184 
	C562.987549,545.791077 563.950256,545.441345 565.320068,545.157959 
	C564.754089,545.536743 563.781189,545.849121 562.416504,546.151184 
z"/>
<path fill="#ECD642" opacity="1.000000" stroke="none" 
	d="
M558.443726,547.316772 
	C558.992126,546.938660 559.930664,546.540710 561.273926,546.196533 
	C560.730347,546.599121 559.782104,546.947998 558.443726,547.316772 
z"/>
<path fill="#EFD950" opacity="1.000000" stroke="none" 
	d="
M860.909058,637.196167 
	C861.223694,637.462158 861.518372,638.081909 861.756775,639.044434 
	C861.430054,638.774719 861.159546,638.162354 860.909058,637.196167 
z"/>
<path fill="#EFD950" opacity="1.000000" stroke="none" 
	d="
M861.454590,386.856140 
	C861.603271,387.286896 861.507019,387.959106 861.169434,388.896606 
	C861.021912,388.473755 861.115845,387.785675 861.454590,386.856140 
z"/>
<path fill="#ECD642" opacity="1.000000" stroke="none" 
	d="
M554.266541,548.919495 
	C554.466003,548.611755 554.964600,548.329651 555.755981,548.026367 
	C555.554443,548.318542 555.060059,548.631836 554.266541,548.919495 
z"/>
<path fill="#ECD642" opacity="1.000000" stroke="none" 
	d="
M556.303101,548.043518 
	C556.531555,547.738159 557.079468,547.447449 557.950195,547.202759 
	C557.722839,547.518616 557.172729,547.788391 556.303101,548.043518 
z"/>
<path fill="#ECD647" opacity="1.000000" stroke="none" 
	d="
M927.328369,542.088623 
	C927.502563,541.763550 927.988403,541.422485 928.780884,541.057129 
	C928.605042,541.379333 928.122559,541.726013 927.328369,542.088623 
z"/>
<path fill="#ECD647" opacity="1.000000" stroke="none" 
	d="
M928.926270,484.699951 
	C928.518005,484.774872 927.949646,484.581848 927.195068,484.143738 
	C927.594666,484.076416 928.180420,484.254181 928.926270,484.699951 
z"/>
<path fill="#ECD647" opacity="1.000000" stroke="none" 
	d="
M929.298706,541.044922 
	C929.289673,540.828125 929.588135,540.570679 930.174683,540.237061 
	C930.177246,540.442017 929.891663,540.723206 929.298706,541.044922 
z"/>
<path fill="#ECD647" opacity="1.000000" stroke="none" 
	d="
M930.280884,485.564514 
	C930.083374,485.672211 929.726746,485.519989 929.179810,485.141541 
	C929.366943,485.045044 929.744263,485.174805 930.280884,485.564514 
z"/>
<path fill="#090702" opacity="1.000000" stroke="none" 
	d="
M285.868286,513.868530 
	C288.349182,529.615601 296.642273,541.324646 308.632751,550.601013 
	C323.738922,562.287781 341.279053,568.267212 359.845673,571.418884 
	C388.360596,576.259216 416.568481,575.362488 444.005585,565.380432 
	C460.288910,559.456238 474.655212,550.834167 483.289978,534.888977 
	C484.838348,532.029663 487.588623,531.026001 490.537537,532.509888 
	C493.702057,534.102234 494.476654,536.928589 492.902802,540.117065 
	C488.533447,548.968811 481.975098,556.005676 474.130371,561.820923 
	C457.114899,574.434448 437.582550,580.656067 416.881317,583.401917 
	C384.787628,587.658997 353.402283,584.977112 323.459839,571.919800 
	C304.357147,563.589478 288.056458,551.597839 279.792694,531.685669 
	C276.672852,524.168274 275.724670,515.701660 274.204407,507.589417 
	C273.479950,503.723480 275.146790,500.313843 279.584869,500.239197 
	C283.660095,500.170654 285.189514,503.071869 285.174866,506.988312 
	C285.166809,509.137573 285.588501,511.288452 285.868286,513.868530 
z"/>
</svg>